<svg width="99" height="96" viewBox="0 0 99 96" fill="none" xmlns="http://www.w3.org/2000/svg">
<g id="undraw_no_data_re_kwbl 1" clip-path="url(#clip0_85_1233)">
<path id="Vector" d="M62.7614 21.5901H36.2609C35.657 21.5908 35.078 21.831 34.651 22.2581C34.224 22.6851 33.9838 23.264 33.983 23.8679V82.7657L33.6793 82.8583L27.1783 84.8492C26.8702 84.9431 26.5374 84.9109 26.253 84.7598C25.9686 84.6086 25.7558 84.3507 25.6613 84.0428L6.32376 20.8779C6.22966 20.5698 6.26173 20.2369 6.41294 19.9524C6.56414 19.668 6.8221 19.4552 7.13013 19.3608L17.1482 16.2933L46.1908 7.40361L56.2088 4.3361C56.3613 4.28918 56.5215 4.27278 56.6803 4.28785C56.8391 4.30292 56.9934 4.34915 57.1343 4.42391C57.2752 4.49866 57.4 4.60047 57.5015 4.72351C57.603 4.84655 57.6793 4.9884 57.7259 5.14094L62.6688 21.2864L62.7614 21.5901Z" fill="#F2F2F2"/>
<path id="Vector_2" d="M68.544 21.2864L62.5866 1.82742C62.4875 1.5032 62.3254 1.20168 62.1098 0.940106C61.8941 0.678529 61.629 0.462017 61.3296 0.30294C61.0302 0.143863 60.7024 0.0453393 60.3649 0.0130015C60.0274 -0.0193362 59.6868 0.015146 59.3627 0.114474L45.2779 4.42569L16.2368 13.3169L2.15208 17.6297C1.49778 17.8306 0.949919 18.2829 0.628762 18.8873C0.307606 19.4917 0.239388 20.1989 0.439085 20.8536L20.8001 87.3563C20.9623 87.8848 21.2896 88.3473 21.7341 88.6761C22.1785 89.0049 22.7165 89.1826 23.2693 89.1832C23.5252 89.1833 23.7796 89.1449 24.024 89.0693L33.6791 86.1141L33.9828 86.02V85.7026L33.6791 85.7952L23.9344 88.7792C23.3569 88.9553 22.7331 88.8951 22.1999 88.6118C21.6667 88.3285 21.2676 87.8454 21.0902 87.2682L0.730712 20.764C0.642801 20.478 0.612161 20.1775 0.640547 19.8797C0.668933 19.5819 0.755785 19.2926 0.896134 19.0284C1.03648 18.7642 1.22757 18.5303 1.45846 18.34C1.68934 18.1498 1.95548 18.007 2.24165 17.9197L16.3264 13.607L45.3676 4.71726L59.4523 0.404524C59.6694 0.338284 59.895 0.304509 60.122 0.304298C60.609 0.305391 61.0829 0.462405 61.4742 0.75234C61.8655 1.04228 62.1537 1.4499 62.2966 1.9155L68.2266 21.2864L68.3208 21.5901H68.6366L68.544 21.2864Z" fill="#667085"/>
<path id="Vector_3" d="M18.9559 19.4105C18.6632 19.4103 18.3783 19.3163 18.1429 19.1423C17.9076 18.9683 17.7342 18.7234 17.6482 18.4436L15.6922 12.0548C15.6397 11.8831 15.6214 11.7028 15.6386 11.5242C15.6557 11.3455 15.7078 11.172 15.792 11.0135C15.8762 10.855 15.9909 10.7146 16.1293 10.6004C16.2678 10.4862 16.4274 10.4004 16.599 10.3478L43.3166 2.16825C43.6632 2.06249 44.0376 2.09856 44.3576 2.26855C44.6776 2.43854 44.9171 2.72856 45.0236 3.07495L46.9795 9.46391C47.0852 9.81051 47.0491 10.1849 46.8792 10.5049C46.7092 10.8249 46.4192 11.0644 46.0729 11.1709L19.3552 19.3505C19.2258 19.3902 19.0912 19.4104 18.9559 19.4105Z" fill="#98A2B3"/>
<path id="Vector_4" d="M29.2019 6.82667C30.8793 6.82667 32.2391 5.4669 32.2391 3.78954C32.2391 2.11217 30.8793 0.752396 29.2019 0.752396C27.5246 0.752396 26.1648 2.11217 26.1648 3.78954C26.1648 5.4669 27.5246 6.82667 29.2019 6.82667Z" fill="#98A2B3"/>
<path id="Vector_5" d="M29.202 5.71275C30.2642 5.71275 31.1252 4.8517 31.1252 3.78954C31.1252 2.72738 30.2642 1.86633 29.202 1.86633C28.1399 1.86633 27.2788 2.72738 27.2788 3.78954C27.2788 4.8517 28.1399 5.71275 29.202 5.71275Z" fill="white"/>
<path id="Vector_6" d="M91.8404 88.4072H40.5127C40.1705 88.4068 39.8424 88.2706 39.6004 88.0287C39.3584 87.7867 39.2223 87.4586 39.2219 87.1164V25.6143C39.2223 25.2721 39.3584 24.944 39.6004 24.702C39.8424 24.46 40.1705 24.3239 40.5127 24.3235H91.8404C92.1826 24.3239 92.5107 24.46 92.7527 24.702C92.9947 24.944 93.1308 25.2721 93.1312 25.6143V87.1164C93.1308 87.4586 92.9947 87.7867 92.7527 88.0286C92.5107 88.2706 92.1826 88.4068 91.8404 88.4072Z" fill="#F2F4F7"/>
<path id="Vector_7" d="M68.2267 21.2864H36.2608C35.5764 21.2873 34.9203 21.5596 34.4364 22.0436C33.9525 22.5275 33.6802 23.1836 33.6792 23.8679V85.7952L33.9829 85.7026V23.8679C33.9836 23.264 34.2239 22.6851 34.6509 22.2581C35.0779 21.831 35.6569 21.5908 36.2608 21.5901H68.3209L68.2267 21.2864ZM96.0925 21.2864H36.2608C35.5764 21.2873 34.9203 21.5596 34.4364 22.0436C33.9525 22.5275 33.6802 23.1836 33.6792 23.8679V93.4184C33.6802 94.1028 33.9525 94.7589 34.4364 95.2428C34.9203 95.7267 35.5764 95.999 36.2608 96H96.0925C96.7768 95.999 97.4329 95.7267 97.9168 95.2428C98.4008 94.7589 98.6731 94.1028 98.674 93.4184V23.8679C98.6731 23.1836 98.4008 22.5275 97.9168 22.0436C97.4329 21.5596 96.7768 21.2873 96.0925 21.2864ZM98.3703 93.4184C98.3696 94.0223 98.1294 94.6013 97.7023 95.0283C97.2753 95.4553 96.6964 95.6956 96.0925 95.6963H36.2608C35.6569 95.6956 35.0779 95.4553 34.6509 95.0283C34.2239 94.6013 33.9836 94.0223 33.9829 93.4184V23.8679C33.9836 23.264 34.2239 22.6851 34.6509 22.2581C35.0779 21.831 35.6569 21.5908 36.2608 21.5901H96.0925C96.6964 21.5908 97.2753 21.831 97.7023 22.2581C98.1294 22.6851 98.3696 23.264 98.3703 23.8679V93.4184Z" fill="#667085"/>
<path id="Vector_8" d="M80.1475 27.9681H52.2058C51.8435 27.9677 51.4961 27.8235 51.2399 27.5673C50.9836 27.3111 50.8395 26.9637 50.8391 26.6014V19.9197C50.8395 19.5573 50.9836 19.2099 51.2399 18.9537C51.4961 18.6975 51.8435 18.5534 52.2058 18.5529H80.1475C80.5099 18.5534 80.8573 18.6975 81.1135 18.9537C81.3697 19.2099 81.5138 19.5573 81.5142 19.9197V26.6014C81.5138 26.9637 81.3697 27.3111 81.1135 27.5673C80.8573 27.8235 80.5099 27.9677 80.1475 27.9681Z" fill="#98A2B3"/>
<path id="Vector_9" d="M66.1765 19.0085C67.8539 19.0085 69.2137 17.6487 69.2137 15.9714C69.2137 14.294 67.8539 12.9342 66.1765 12.9342C64.4992 12.9342 63.1394 14.294 63.1394 15.9714C63.1394 17.6487 64.4992 19.0085 66.1765 19.0085Z" fill="#98A2B3"/>
<path id="Vector_10" d="M66.1766 17.8213C67.1982 17.8213 68.0265 16.993 68.0265 15.9714C68.0265 14.9497 67.1982 14.1215 66.1766 14.1215C65.1549 14.1215 64.3267 14.9497 64.3267 15.9714C64.3267 16.993 65.1549 17.8213 66.1766 17.8213Z" fill="white"/>
</g>
<defs>
<clipPath id="clip0_85_1233">
<rect width="98.3481" height="96" fill="white" transform="translate(0.325928)"/>
</clipPath>
</defs>
</svg>
