<svg width="143" height="148" viewBox="0 0 143 148" fill="none" xmlns="http://www.w3.org/2000/svg">
<g id="undraw_join_re_w1lh 1" clip-path="url(#clip0_51_51)">
<path id="Vector" d="M126.734 112.632L126.731 112.699L130.069 148H105.709L102.551 126.319L101.161 147.444L76.1446 147.166L78.802 119.431L81.0618 106.575V106.573L81.4009 104.638H126.069L126.128 105.339L126.734 112.632Z" fill="#3A521F"/>
<path id="Vector_2" d="M62.3555 133.096C64.9355 133.566 67.6257 130.661 68.3643 126.607C68.6877 124.832 68.5833 123.131 68.1475 121.741L68.5431 119.403L75.1817 87.9635C75.1817 87.9635 87.4065 63.5098 87.4062 59.2644C87.4059 55.0192 83.8699 52.9373 83.8699 52.9373L79.085 52.982L64.0799 89.6302L61.3775 116.712L60.9403 120.427C60.0421 121.575 59.3447 123.13 59.0215 124.904C58.2828 128.959 59.7755 132.626 62.3555 133.096Z" fill="#FFB6B6"/>
<path id="Vector_3" d="M111.029 37.7884L106.581 27.5038L92.1274 30.0054L91.1545 42.1055L111.029 37.7884Z" fill="#FFB6B6"/>
<path id="Vector_4" opacity="0.1" d="M111.029 37.7884L106.581 27.5038L92.1274 30.0054L91.1545 42.1055L111.029 37.7884Z" fill="black"/>
<path id="Vector_5" d="M142.438 59.1914C142.438 59.1914 132.154 40.012 130.208 38.0663C129.342 37.2001 127.98 37.1881 126.736 37.4405L112.419 32.5071L107.566 29.7805L107.246 34.9678L91.3148 37.8273C91.4032 34.6639 91.8495 33.4607 91.8495 33.4607L86.0123 40.29L74.6159 45.8492L74.6222 45.8993C73.7858 46.1912 72.9929 46.6908 72.3922 47.517C70.1685 50.5746 64.0534 87.8214 64.0534 87.8214L77.1176 90.601L78.8955 79.4438L80.1751 89.4891L81.148 108.252C81.148 108.252 98.9375 123.539 107.554 117.98C116.171 112.421 126.734 112.699 126.734 112.699L126.997 104.002C127.185 103.702 127.29 103.526 127.29 103.526L127.012 72.6769V64.4681C129.129 67.4182 131.685 69.9554 134.656 71.1437C144.384 75.0352 142.438 59.1914 142.438 59.1914Z" fill="#E6E6E6"/>
<path id="Vector_6" d="M97.8436 31.8149C105.187 31.8149 111.141 25.8616 111.141 18.5177C111.141 11.1738 105.187 5.22046 97.8436 5.22046C90.4998 5.22046 84.5464 11.1738 84.5464 18.5177C84.5464 25.8616 90.4998 31.8149 97.8436 31.8149Z" fill="#FFB6B6"/>
<path id="Vector_7" d="M107.383 22.2757C107.383 22.2757 108.539 18.2287 111.141 18.5178C113.743 18.8068 114.321 16.4943 113.743 15.338C113.164 14.1817 112.008 8.40029 112.008 8.40029C112.008 8.40029 112.586 4.3533 109.117 3.77516C105.649 3.19702 104.492 2.61888 103.914 1.46259C103.336 0.306312 94.6639 -0.849971 91.7732 0.884454C88.8825 2.61888 86.5699 5.9466 84.5464 6.88437C82.5229 7.82215 80.7885 9.55657 81.9448 12.4473C83.101 15.338 84.778 20.9916 84.778 20.9916C84.778 20.9916 87.7262 19.9631 88.3043 21.6975C88.8825 23.4319 86.5699 21.1194 89.4606 16.4943C92.3513 11.8691 92.3513 7.244 96.9764 8.97843C101.602 10.7128 106.805 10.1347 106.227 13.6036C105.649 17.0724 107.383 22.2757 107.383 22.2757Z" fill="#3A521F"/>
<g id="Group">
<path id="Vector_8" d="M106.57 127.691H5.58203C2.7261 127.691 0.402718 125.367 0.402718 122.512V68.8671C0.402718 66.0113 2.7261 63.6877 5.58203 63.6877H106.57C109.426 63.6877 111.749 66.0113 111.749 68.8671V122.512C111.749 125.367 109.426 127.691 106.57 127.691Z" fill="white"/>
<path id="Vector_9" d="M106.57 127.691H5.58203C2.7261 127.691 0.402718 125.367 0.402718 122.512V68.8671C0.402718 66.0113 2.7261 63.6877 5.58203 63.6877H106.57C109.426 63.6877 111.749 66.0113 111.749 68.8671V122.512C111.749 125.367 109.426 127.691 106.57 127.691ZM5.58203 64.5526C3.20311 64.5526 1.26762 66.4881 1.26762 68.8671V122.512C1.26762 124.891 3.20311 126.826 5.58203 126.826H106.57C108.949 126.826 110.884 124.891 110.884 122.512V68.8671C110.884 66.4881 108.949 64.5526 106.57 64.5526H5.58203Z" fill="#3F3D56"/>
<path id="Vector_10" d="M98.7755 70.1746C99.492 70.1746 100.073 69.5937 100.073 68.8772C100.073 68.1607 99.492 67.5798 98.7755 67.5798C98.059 67.5798 97.4782 68.1607 97.4782 68.8772C97.4782 69.5937 98.059 70.1746 98.7755 70.1746Z" fill="#3F3D56"/>
<path id="Vector_11" d="M102.235 70.1746C102.952 70.1746 103.533 69.5937 103.533 68.8772C103.533 68.1607 102.952 67.5798 102.235 67.5798C101.519 67.5798 100.938 68.1607 100.938 68.8772C100.938 69.5937 101.519 70.1746 102.235 70.1746Z" fill="#3F3D56"/>
<path id="Vector_12" d="M105.695 70.1746C106.411 70.1746 106.992 69.5937 106.992 68.8772C106.992 68.1607 106.411 67.5798 105.695 67.5798C104.978 67.5798 104.397 68.1607 104.397 68.8772C104.397 69.5937 104.978 70.1746 105.695 70.1746Z" fill="#3F3D56"/>
<path id="Vector_13" d="M7.75443 89.8512C7.39673 89.8512 7.10575 90.1422 7.10575 90.4999C7.10575 90.6743 7.17311 90.8356 7.29537 90.9547C7.41869 91.081 7.58023 91.1486 7.75443 91.1486H104.83C105.188 91.1486 105.479 90.8576 105.479 90.4999C105.479 90.3255 105.411 90.1641 105.289 90.045C105.166 89.9188 105.004 89.8512 104.83 89.8512H7.75443Z" fill="#E6E6E6"/>
<path id="Vector_14" d="M92.7212 89.635V91.3648H7.75444C7.51659 91.3648 7.30036 91.2697 7.14469 91.1097C6.98465 90.954 6.88953 90.7378 6.88953 90.4999C6.88953 90.0242 7.27874 89.635 7.75443 89.635H92.7212Z" fill="#FFA500"/>
<path id="Vector_15" d="M103.749 86.3915H95.0997C94.1459 86.3915 93.3699 85.6157 93.3699 84.6617C93.3699 83.7077 94.1459 82.9319 95.0997 82.9319H103.749C104.703 82.9319 105.479 83.7077 105.479 84.6617C105.479 85.6157 104.703 86.3915 103.749 86.3915Z" fill="#E6E6E6"/>
<path id="Vector_16" d="M47.0973 77.3101H8.40312C7.44931 77.3101 6.6733 76.5343 6.6733 75.5803C6.6733 74.6263 7.44931 73.8505 8.40312 73.8505H47.0973C48.0511 73.8505 48.8271 74.6263 48.8271 75.5803C48.8271 76.5343 48.0511 77.3101 47.0973 77.3101Z" fill="#E6E6E6"/>
<path id="Vector_17" d="M7.75443 109.312C7.39673 109.312 7.10575 109.603 7.10575 109.96C7.10575 110.135 7.17311 110.296 7.29537 110.415C7.41869 110.541 7.58023 110.609 7.75443 110.609H104.83C105.188 110.609 105.479 110.318 105.479 109.96C105.479 109.786 105.411 109.625 105.289 109.505C105.166 109.379 105.004 109.312 104.83 109.312H7.75443Z" fill="#E6E6E6"/>
<path id="Vector_18" d="M59.4222 109.095V110.825H7.75444C7.51659 110.825 7.30036 110.73 7.14469 110.57C6.98465 110.414 6.88953 110.198 6.88953 109.96C6.88953 109.485 7.27874 109.095 7.75443 109.095H59.4222Z" fill="#FFA500"/>
<path id="Vector_19" d="M103.749 105.852H95.0997C94.1459 105.852 93.3699 105.076 93.3699 104.122C93.3699 103.168 94.1459 102.392 95.0997 102.392H103.749C104.703 102.392 105.479 103.168 105.479 104.122C105.479 105.076 104.703 105.852 103.749 105.852Z" fill="#E6E6E6"/>
</g>
<g id="Group_2">
<path id="Vector_20" d="M118.89 32.8385C126.37 32.8385 132.434 26.9024 132.434 19.5798C132.434 12.2573 126.37 6.32117 118.89 6.32117C111.41 6.32117 105.346 12.2573 105.346 19.5798C105.346 26.9024 111.41 32.8385 118.89 32.8385Z" fill="#4C6B29"/>
<path id="Vector_21" d="M123.487 12.8921C121.684 16.1754 119.881 19.4588 118.078 22.7421C116.928 20.7116 115.786 18.6775 114.633 16.6486C114.236 15.9479 113.153 16.5781 113.552 17.2806C114.888 19.6326 116.209 21.9923 117.545 24.3443C117.773 24.7464 118.4 24.7558 118.626 24.3443C120.607 20.7376 122.588 17.1308 124.568 13.5241C124.956 12.8174 123.876 12.1848 123.487 12.8921Z" fill="white"/>
</g>
<path id="Vector_22" d="M137.587 54.5281L124.093 48.0729C124.093 48.0729 123.551 43.7524 121.02 42.2113C120.59 41.1849 120.095 40.0573 119.646 39.1639C118.534 36.9545 120.201 32.785 118.812 32.785C117.422 32.785 115.367 37.17 115.476 38.3443C115.56 39.2457 116.305 40.8194 116.459 42.1971C114.764 42.8362 113.397 43.9318 112.498 44.8041C111.72 45.5589 111.431 46.6852 111.735 47.7256C112.616 50.7407 114.818 56.9677 117.978 56.9677C122.147 56.9677 123.259 56.1338 123.259 56.1338C123.259 56.1338 131.876 66.9743 138.269 67.8081C144.662 68.642 137.587 54.5281 137.587 54.5281Z" fill="#FFB6B6"/>
</g>
<defs>
<clipPath id="clip0_51_51">
<rect width="142.195" height="148" fill="white" transform="translate(0.402718)"/>
</clipPath>
</defs>
</svg>
