<svg width="225" height="148" viewBox="0 0 225 148" fill="none" xmlns="http://www.w3.org/2000/svg">
<g id="undraw_progress_data_re_rv4p 1" clip-path="url(#clip0_51_80)">
<path id="Vector" d="M208.071 147.843L208.317 147.388C205.021 145.606 200.919 143.387 198.776 139.747C196.664 136.158 196.617 131.285 198.653 127.029C200.385 123.407 203.567 120.162 207.856 117.645C208.702 117.148 209.589 116.677 210.448 116.222C212.524 115.122 214.67 113.985 216.44 112.371C218.877 110.148 220.722 106.418 219.347 103.095C218.895 102.035 218.155 101.122 217.21 100.462C216.265 99.8006 215.154 99.4178 214.003 99.3566L213.974 99.8727C215.029 99.9286 216.047 100.279 216.912 100.884C217.778 101.489 218.456 102.325 218.871 103.296C220.148 106.384 218.396 109.888 216.092 111.989C214.37 113.559 212.253 114.681 210.206 115.766C209.343 116.223 208.45 116.697 207.594 117.199C203.217 119.769 199.963 123.091 198.186 126.806C196.077 131.215 196.133 136.274 198.331 140.009C200.546 143.773 204.718 146.03 208.071 147.843Z" fill="#F1F1F1"/>
<path id="Vector_2" d="M210.727 102.081C213.225 102.081 215.25 101.097 215.25 99.8841C215.25 98.6709 213.225 97.6874 210.727 97.6874C208.23 97.6874 206.205 98.6709 206.205 99.8841C206.205 101.097 208.23 102.081 210.727 102.081Z" fill="#F1F1F1"/>
<path id="Vector_3" d="M207.109 116.553C209.607 116.553 211.632 115.57 211.632 114.356C211.632 113.143 209.607 112.16 207.109 112.16C204.612 112.16 202.587 113.143 202.587 114.356C202.587 115.57 204.612 116.553 207.109 116.553Z" fill="#F1F1F1"/>
<path id="Vector_4" d="M215.379 118.879C217.877 118.879 219.902 117.895 219.902 116.682C219.902 115.469 217.877 114.486 215.379 114.486C212.881 114.486 210.857 115.469 210.857 116.682C210.857 117.895 212.881 118.879 215.379 118.879Z" fill="#F1F1F1"/>
<path id="Vector_5" d="M202.457 131.025C204.955 131.025 206.98 130.042 206.98 128.829C206.98 127.616 204.955 126.632 202.457 126.632C199.96 126.632 197.935 127.616 197.935 128.829C197.935 130.042 199.96 131.025 202.457 131.025Z" fill="#F1F1F1"/>
<path id="Vector_6" d="M193.412 131.025C195.91 131.025 197.935 130.042 197.935 128.829C197.935 127.616 195.91 126.632 193.412 126.632C190.915 126.632 188.89 127.616 188.89 128.829C188.89 130.042 190.915 131.025 193.412 131.025Z" fill="#F1F1F1"/>
<path id="Vector_7" d="M152.991 90.0551C153.291 90.022 153.581 89.9234 153.839 89.7663C154.097 89.6092 154.318 89.3973 154.485 89.1457C154.653 88.8941 154.763 88.6088 154.809 88.3099C154.854 88.011 154.833 87.7058 154.748 87.4158L160.728 83.1444L157.164 81.7722L152.032 86.0387C151.554 86.2144 151.157 86.5592 150.917 87.0078C150.676 87.4564 150.609 87.9777 150.727 88.4728C150.845 88.9679 151.141 89.4024 151.558 89.694C151.975 89.9857 152.485 90.1142 152.991 90.0551Z" fill="#FFB7B7"/>
<path id="Vector_8" d="M156.31 87.2419L154.327 83.8537L154.369 83.8057L162.373 74.6935L168.587 64.0957L173.983 64.7835L174.063 66.4147L174.047 66.439L165.473 79.3271L165.464 79.3349L156.31 87.2419Z" fill="#4C6B29"/>
<path id="Vector_9" d="M154.639 89.9307L143.918 95.9989L136.071 82.1349L146.793 76.0668L154.639 89.9307Z" fill="#E5E5E5"/>
<path id="Vector_10" d="M146.497 81.3434L140.747 84.5973L141.306 85.5852L147.056 82.3313L146.497 81.3434Z" fill="#FFA500"/>
<path id="Vector_11" d="M147.95 83.9119L142.201 87.1658L142.76 88.1537L148.509 84.8998L147.95 83.9119Z" fill="#FFA500"/>
<path id="Vector_12" d="M149.404 86.4805L143.655 89.7344L144.214 90.7223L149.963 87.4684L149.404 86.4805Z" fill="#FFA500"/>
<path id="Vector_13" d="M182.755 144.575H179.703L178.252 132.803L182.756 132.804L182.755 144.575Z" fill="#FFB7B7"/>
<path id="Vector_14" d="M183.533 147.533L173.693 147.532V147.408C173.693 146.392 174.097 145.418 174.815 144.7C175.533 143.982 176.508 143.578 177.523 143.578L183.534 143.578L183.533 147.533Z" fill="#3A521F"/>
<path id="Vector_15" d="M156.49 144.475L153.522 143.766L154.844 131.98L159.224 133.026L156.49 144.475Z" fill="#FFB7B7"/>
<path id="Vector_16" d="M156.561 147.533L146.989 145.247L147.018 145.126C147.254 144.138 147.873 143.285 148.738 142.753C149.604 142.221 150.645 142.055 151.633 142.29L157.479 143.686L156.561 147.533Z" fill="#3A521F"/>
<path id="Vector_17" d="M168.351 58.7142V53.5773C168.35 52.673 168.528 51.7774 168.874 50.9418C169.219 50.1061 169.726 49.3468 170.366 48.7072C171.005 48.0676 171.764 47.5601 172.599 47.214C173.435 46.8678 174.33 46.6896 175.234 46.6896C176.139 46.6896 177.034 46.8678 177.87 47.214C178.705 47.5601 179.464 48.0676 180.103 48.7072C180.743 49.3468 181.25 50.1061 181.595 50.9418C181.941 51.7774 182.118 52.673 182.118 53.5773V58.7142C182.118 58.9593 182.02 59.1944 181.847 59.3677C181.673 59.541 181.438 59.6386 181.193 59.6388H169.276C169.03 59.6386 168.795 59.541 168.622 59.3677C168.449 59.1944 168.351 58.9593 168.351 58.7142Z" fill="#3A521F"/>
<path id="Vector_18" d="M173.536 59.5607C176.323 59.5607 178.582 57.3012 178.582 54.514C178.582 51.7268 176.323 49.4673 173.536 49.4673C170.748 49.4673 168.489 51.7268 168.489 54.514C168.489 57.3012 170.748 59.5607 173.536 59.5607Z" fill="#FFB7B7"/>
<path id="Vector_19" d="M166.723 53.9882C166.724 52.5446 167.298 51.1605 168.319 50.1397C169.34 49.1189 170.724 48.5447 172.168 48.5431H173.195C174.639 48.5447 176.023 49.1189 177.044 50.1397C178.064 51.1605 178.639 52.5446 178.64 53.9882V54.091H176.469L175.728 52.0173L175.58 54.091H174.458L174.085 53.0447L174.01 54.091H166.723V53.9882Z" fill="#3A521F"/>
<path id="Vector_20" d="M176.479 81.1501L163.63 80.6611L162.911 72.2545C162.357 70.7158 162.348 69.3946 162.885 68.3279C163.346 67.4517 164.121 66.7819 165.055 66.4523L167.866 63.0564C168.228 62.6198 168.682 62.2691 169.196 62.0296C169.71 61.79 170.271 61.6677 170.838 61.6714L178.143 61.7213C178.319 61.6154 179.387 61.0726 181.494 61.9857C183.779 62.9762 183.248 66.4164 183.242 66.451L183.237 66.4833L183.212 66.5045L178.353 70.5967L176.479 81.1501Z" fill="#4C6B29"/>
<path id="Vector_21" d="M163.732 79.7577L157.654 90.8394L153.046 141.255L158.252 142.845L167.468 103.407L178.164 141.726L184.405 141.883L180.156 97.6618L176.442 80.5407L163.732 79.7577Z" fill="#3A521F"/>
<path id="Vector_22" d="M179.971 97.698C180.196 97.4961 180.374 97.2473 180.492 96.9691C180.611 96.6909 180.667 96.3902 180.656 96.0881C180.646 95.7859 180.569 95.4897 180.432 95.2204C180.295 94.951 180.1 94.715 179.862 94.529L182.235 87.574L178.539 88.5343L176.852 94.9916C176.566 95.4127 176.444 95.924 176.51 96.4287C176.576 96.9334 176.825 97.3965 177.209 97.7301C177.594 98.0637 178.087 98.2447 178.596 98.2388C179.105 98.2328 179.594 98.0404 179.971 97.698Z" fill="#FFB7B7"/>
<path id="Vector_23" d="M181.031 93.4775L177.445 91.879L178.65 79.7466L177.528 67.5126L182.315 64.9283L183.33 66.2078L183.331 66.2369L183.869 81.7069L183.866 81.7187L181.031 93.4775Z" fill="#4C6B29"/>
<path id="Vector_24" d="M129.065 56.3805H0.322418V0H129.065L129.065 56.3805Z" fill="white"/>
<path id="Vector_25" d="M129.065 56.3805H0.322418V0H129.065L129.065 56.3805ZM1.56782 55.1351H127.819V1.2454H1.56782V55.1351Z" fill="#E5E5E5"/>
<path id="Vector_26" d="M64.7462 45.3919L42.6426 28.8358L20.8411 45.1655L20.342 44.4995L42.6426 27.7962L64.6408 44.2732L86.5012 20.3507L86.5891 20.3153L108.64 11.4305L108.951 12.2025L86.9878 21.0515L64.7462 45.3919Z" fill="#4C6B29"/>
<path id="Vector_27" d="M20.5915 47.3289C21.9702 47.3289 23.0878 46.2112 23.0878 44.8325C23.0878 43.4538 21.9702 42.3362 20.5915 42.3362C19.2128 42.3362 18.0952 43.4538 18.0952 44.8325C18.0952 46.2112 19.2128 47.3289 20.5915 47.3289Z" fill="#FFA500"/>
<path id="Vector_28" d="M42.6425 31.1027C44.0212 31.1027 45.1388 29.985 45.1388 28.6063C45.1388 27.2276 44.0212 26.11 42.6425 26.11C41.2638 26.11 40.1462 27.2276 40.1462 28.6063C40.1462 29.985 41.2638 31.1027 42.6425 31.1027Z" fill="#FFA500"/>
<path id="Vector_29" d="M64.6935 47.3289C66.0722 47.3289 67.1898 46.2112 67.1898 44.8325C67.1898 43.4538 66.0722 42.3362 64.6935 42.3362C63.3148 42.3362 62.1972 43.4538 62.1972 44.8325C62.1972 46.2112 63.3148 47.3289 64.6935 47.3289Z" fill="#FFA500"/>
<path id="Vector_30" d="M86.7445 23.1976C88.1232 23.1976 89.2408 22.08 89.2408 20.7013C89.2408 19.3226 88.1232 18.205 86.7445 18.205C85.3658 18.205 84.2482 19.3226 84.2482 20.7013C84.2482 22.08 85.3658 23.1976 86.7445 23.1976Z" fill="#FFA500"/>
<path id="Vector_31" d="M108.796 14.0443C110.174 14.0443 111.292 12.9267 111.292 11.548C111.292 10.1693 110.174 9.05164 108.796 9.05164C107.417 9.05164 106.299 10.1693 106.299 11.548C106.299 12.9267 107.417 14.0443 108.796 14.0443Z" fill="#FFA500"/>
<path id="Vector_32" d="M224.419 148H125.956C125.887 148 125.821 147.973 125.773 147.924C125.724 147.876 125.697 147.81 125.697 147.742C125.697 147.673 125.724 147.607 125.773 147.559C125.821 147.51 125.887 147.483 125.956 147.483H224.419C224.488 147.483 224.553 147.51 224.602 147.559C224.65 147.607 224.678 147.673 224.678 147.742C224.678 147.81 224.65 147.876 224.602 147.924C224.553 147.973 224.488 148 224.419 148Z" fill="#CBCBCB"/>
</g>
<defs>
<clipPath id="clip0_51_80">
<rect width="224.355" height="148" fill="white" transform="translate(0.322418)"/>
</clipPath>
</defs>
</svg>
