<svg width="217" height="148" viewBox="0 0 217 148" fill="none" xmlns="http://www.w3.org/2000/svg">
<g id="undraw_share_link_re_54rx 1" clip-path="url(#clip0_51_8)">
<path id="Vector" d="M75.4683 141.769C75.296 141.777 75.1255 141.731 74.9798 141.639C74.8341 141.547 74.7202 141.412 74.6537 141.253C74.5872 141.094 74.5712 140.918 74.6078 140.75C74.6445 140.581 74.7321 140.428 74.8587 140.311L74.9164 140.082C74.9088 140.063 74.9011 140.045 74.8935 140.027C74.7199 139.617 74.4291 139.267 74.0575 139.022C73.686 138.777 73.2503 138.647 72.8051 138.649C72.36 138.65 71.9252 138.784 71.5555 139.032C71.1858 139.279 70.8976 139.631 70.7271 140.042C70.0456 141.684 69.178 143.328 68.9644 145.063C68.8703 145.83 68.91 146.607 69.0817 147.361C67.4812 143.87 66.6501 140.075 66.6448 136.234C66.6444 135.271 66.698 134.307 66.8051 133.35C66.8937 132.565 67.0166 131.785 67.1738 131.011C68.0316 126.811 69.8735 122.875 72.548 119.525C73.8425 118.819 74.8893 117.733 75.5475 116.413C75.7859 115.939 75.9545 115.432 76.0478 114.91C75.9018 114.929 75.4972 112.705 75.6074 112.569C75.4039 112.26 75.0396 112.106 74.8174 111.805C73.7121 110.306 72.1892 110.568 71.3942 112.605C69.6958 113.462 69.6794 114.883 70.7215 116.25C71.3845 117.12 71.4756 118.297 72.0573 119.228C71.9974 119.305 71.9352 119.379 71.8753 119.456C70.7813 120.863 69.8278 122.373 69.0285 123.966C69.2229 122.181 68.9909 120.376 68.3516 118.699C67.7036 117.136 66.4892 115.82 65.4197 114.469C64.1351 112.845 61.5009 113.554 61.2746 115.611C61.2724 115.631 61.2702 115.651 61.2682 115.671C61.427 115.761 61.5825 115.856 61.7347 115.956C61.9258 116.084 62.0739 116.267 62.1596 116.48C62.2452 116.693 62.2645 116.927 62.2147 117.152C62.165 117.376 62.0487 117.58 61.8809 117.738C61.7132 117.895 61.5019 117.998 61.2747 118.033L61.2514 118.036C61.308 118.609 61.408 119.176 61.5506 119.733C60.1786 125.039 63.1407 126.972 67.3701 127.059C67.4635 127.107 67.5544 127.154 67.6478 127.2C66.8447 129.476 66.341 131.846 66.1492 134.252C66.0407 135.672 66.0471 137.097 66.1684 138.516L66.1612 138.465C65.8548 136.888 65.0134 135.465 63.7793 134.437C61.9463 132.931 59.3566 132.376 57.3792 131.166C57.169 131.031 56.9246 130.959 56.6749 130.958C56.4251 130.958 56.1804 131.029 55.9696 131.163C55.7588 131.296 55.5907 131.488 55.4851 131.714C55.3795 131.94 55.3408 132.192 55.3736 132.44C55.3762 132.457 55.3789 132.475 55.3817 132.493C55.6765 132.613 55.9635 132.751 56.2411 132.907C56.3999 132.996 56.5554 133.092 56.7076 133.192C56.8987 133.32 57.0468 133.502 57.1324 133.716C57.2181 133.929 57.2373 134.163 57.1876 134.388C57.1379 134.612 57.0215 134.816 56.8538 134.973C56.6861 135.131 56.4748 135.233 56.2476 135.268L56.2243 135.272C56.2075 135.274 56.1932 135.277 56.1764 135.279C56.6801 136.482 57.387 137.589 58.2663 138.552C59.1241 143.183 62.8087 143.623 66.7501 142.274H66.7525C67.1849 144.153 67.8115 145.982 68.6221 147.732H75.3009C75.3249 147.658 75.3464 147.581 75.368 147.507C74.7498 147.546 74.1291 147.509 73.5199 147.397C74.0154 146.789 74.511 146.176 75.0065 145.568C75.0176 145.557 75.028 145.545 75.0376 145.532C75.289 145.221 75.5427 144.912 75.7941 144.601L75.7942 144.6C75.8076 143.647 75.6979 142.695 75.4683 141.769Z" fill="#F2F2F2"/>
<path id="Vector_2" d="M24.0967 131.667L25.9396 133.615L34.4963 127.275L31.7766 124.401L24.0967 131.667Z" fill="#A0616A"/>
<path id="Vector_3" d="M27.1165 132.744L25.0303 130.784L24.518 130.304L19.2067 134.551L20.5883 136.011L22.2146 134.968L21.4675 136.94L25.1306 140.812C25.3061 140.998 25.5364 141.122 25.7878 141.168C26.0392 141.213 26.2986 141.177 26.5281 141.065C26.7577 140.953 26.9453 140.77 27.0637 140.544C27.182 140.317 27.2249 140.059 27.186 139.806L26.3955 134.692L27.7886 133.374L27.1165 132.744Z" fill="#4C6B29"/>
<path id="Vector_4" d="M64.5969 60.7521L64.0126 67.1305C64.0126 67.1305 62.9928 71.936 63.6989 71.5465C64.4051 71.157 63.139 72.9101 63.4724 74.4303C63.8059 75.9506 60.6241 87.2872 62.0652 86.1128C63.5063 84.9384 61.2324 93.0515 59.7942 97.0541C59.3539 98.2914 58.9014 99.5438 58.4461 100.787C58.3562 101.039 58.2663 101.287 58.1735 101.539C57.5833 103.157 56.993 104.751 56.4268 106.255C56.346 106.464 56.268 106.674 56.1902 106.881C56.1871 106.887 56.1871 106.893 56.1842 106.893C54.3206 111.797 52.7237 115.656 52.0856 116.294C51.7531 116.627 46.4773 120.438 41.1594 124.254C35.578 128.26 29.9515 132.275 29.9515 132.275L24.6966 126.762C24.6966 126.762 24.8224 126.726 25.0591 126.654C25.4965 126.528 26.3055 126.292 27.366 125.977C31.788 124.674 26.1706 122.646 30.1853 121.196C31.3177 120.788 32.0727 120.471 32.2434 120.303C33.2411 119.329 34.5803 117.007 35.2125 117.981C35.8446 118.955 38.7118 111.719 39.5386 111.003C39.982 110.617 41.4291 108.81 42.6694 107.222C43.7359 105.856 44.6527 104.649 44.6527 104.649C44.6527 104.649 44.6707 104.002 44.6976 102.971C44.7366 101.446 44.7935 99.0764 44.8535 96.7036C44.8504 96.7005 44.8504 96.7005 44.8535 96.7005C44.8744 95.8077 44.8954 94.9149 44.9164 94.0671C44.9314 93.411 44.9463 92.7789 44.9613 92.1946C45.0002 90.445 45.0272 89.1208 45.0272 88.7912C45.0272 87.7097 45.0272 88.5516 45.881 87.8984C46.0086 87.7983 46.1296 87.6902 46.2436 87.5748C46.4261 87.4105 46.5945 87.2311 46.7469 87.0386C46.8099 86.9038 46.4173 87.0865 45.908 86.9847C45.6322 86.9293 45.3771 86.7987 45.171 86.6072C44.0984 85.6425 45.2549 82.6766 45.2549 82.6766C42.8162 77.7991 42.993 73.7994 44.1344 70.7166C44.9879 68.5043 46.3426 66.52 48.092 64.9195C48.7579 64.285 49.4833 63.716 50.2583 63.2206L50.3332 62.8163L51.1571 58.3553C51.5952 58.1146 52.0508 57.9073 52.5201 57.7352C53.9835 57.2101 55.5537 57.0537 57.0919 57.2798C58.6206 57.501 60.1007 57.9802 61.4691 58.6969C62.5876 59.2588 63.6372 59.9485 64.5969 60.7521Z" fill="#4C6B29"/>
<path id="Vector_5" d="M41.5866 141.604L44.2563 141.853L46.506 131.444L42.5654 131.077L41.5866 141.604Z" fill="#A0616A"/>
<path id="Vector_6" d="M49.2755 145.685L45.3087 142.362L45.4885 140.451L44.5659 140.421L41.7077 140.328H41.7047L41.0037 140.304L39.8142 146.997L41.8185 147.183L42.3488 145.325L43.0888 147.303L44.1494 147.401L48.3947 147.797C48.4306 147.8 48.4696 147.803 48.5055 147.803C48.6743 147.803 48.8412 147.767 48.9951 147.698C49.149 147.629 49.2865 147.528 49.3983 147.401C49.5721 147.211 49.6784 146.969 49.7009 146.712C49.7184 146.519 49.6889 146.325 49.6148 146.146C49.5407 145.967 49.4242 145.809 49.2755 145.685Z" fill="#4C6B29"/>
<path id="Vector_7" d="M56.4268 106.255C55.4112 111.782 51.1119 124.743 48.5115 132.329C47.3281 135.795 46.5012 138.141 46.5012 138.141L45.1531 137.715H45.15L42.8701 136.996L42.0402 136.733H42.0371L41.0305 136.412C41.0305 136.412 41.1474 130.222 41.1594 124.255C41.1683 121.753 41.1563 119.287 41.1085 117.334C41.0545 115.204 40.9616 113.679 40.8089 113.376C40.1767 112.136 41.2343 112.004 42.3518 111.692C43.4722 111.378 42.5974 110.904 42.1629 109.898C41.8695 109.227 42.4476 108.331 42.8581 107.822C42.9714 107.678 43.0924 107.541 43.2206 107.411C43.2206 107.411 43.0228 107.342 42.6694 107.222C43.7358 105.856 44.6526 104.649 44.6526 104.649C44.6526 104.649 44.6706 104.002 44.6975 102.971C44.7366 101.446 44.7935 99.0764 44.8535 96.7037C44.8504 96.7006 44.8504 96.7006 44.8535 96.7006C44.8744 95.8078 44.8953 94.915 44.9164 94.0671C46.63 95.3824 48.2958 96.6708 49.8057 97.8631C49.8076 97.8646 49.8091 97.8664 49.8101 97.8685C49.8112 97.8705 49.8117 97.8728 49.8117 97.8751C53.4398 100.742 56.1632 103.043 56.5467 103.774C56.7204 104.104 56.6605 104.985 56.4268 106.255Z" fill="#4C6B29"/>
<path id="Vector_8" d="M145.745 8.65608C146.244 8.60937 146.742 8.75939 147.133 9.07421C147.523 9.38904 147.776 9.84382 147.836 10.3418C147.847 10.4432 147.849 10.5453 147.843 10.6471L154.021 13.2854L153.785 16.8914L145.713 12.3622C145.292 12.3039 144.904 12.1082 144.606 11.8056C144.309 11.5029 144.121 11.1105 144.07 10.6894C144.044 10.4495 144.065 10.2068 144.132 9.97503C144.199 9.74327 144.311 9.52703 144.462 9.33867C144.613 9.15031 144.8 8.99351 145.011 8.87722C145.223 8.76093 145.455 8.68744 145.695 8.66093C145.712 8.65909 145.728 8.65747 145.745 8.65608Z" fill="#FFB6B6"/>
<path id="Vector_9" d="M187.779 30.9154C187.626 30.2163 187.343 29.5524 186.943 28.9589C186.832 28.7901 186.711 28.628 186.58 28.4736C186.095 27.8954 185.643 27.3651 185.223 26.8918C184.969 26.5951 184.72 26.3195 184.486 26.0649C183.129 24.5759 182.239 23.788 181.832 23.722C181.634 23.6891 181.439 23.6651 181.251 23.6411C180.283 23.5213 179.582 23.4344 179.561 22.4127C179.559 22.2664 179.569 22.1201 179.591 21.9753C179.627 21.7323 179.68 21.4921 179.75 21.2563C179.79 21.1227 179.821 20.9866 179.843 20.8489C179.873 20.6722 179.861 20.5402 179.765 20.4594C179.645 20.3606 179.444 20.3755 179.067 20.5253C179.007 20.5493 178.938 20.5762 178.866 20.6091C178.842 20.6182 178.818 20.6302 178.791 20.6422C178.743 20.6631 178.689 20.6871 178.635 20.714C178.183 20.9298 177.485 20.9567 176.688 20.8758C174.336 20.6362 171.154 19.4498 171.115 19.4347L151.078 11.6483L150.893 11.9479L150.452 12.6609L150.299 12.9065L150.126 13.1881L149.368 14.4105L148.984 15.0277L155.455 19.9081L156.159 20.4384L156.765 20.8969L169.12 30.2173L173.728 33.2582L174.755 33.9352L179.136 36.8233C179.765 37.2393 180.472 37.5249 181.213 37.6634C181.955 37.8018 182.717 37.7903 183.454 37.6295C184.192 37.4686 184.889 37.1617 185.506 36.7269C186.122 36.2921 186.646 35.7381 187.045 35.0977C187.823 33.8515 188.086 32.3519 187.779 30.9154Z" fill="#E6E6E6"/>
<path id="Vector_10" d="M216.464 148H0.535871C0.456413 148 0.380209 147.969 0.324024 147.912C0.267839 147.856 0.236275 147.78 0.236275 147.7C0.236275 147.621 0.267839 147.545 0.324024 147.489C0.380209 147.432 0.456413 147.401 0.535871 147.401H216.464C216.544 147.401 216.62 147.432 216.676 147.489C216.732 147.545 216.764 147.621 216.764 147.7C216.764 147.78 216.732 147.856 216.676 147.912C216.62 147.969 216.544 148 216.464 148Z" fill="#E6E6E6"/>
<path id="Vector_11" d="M49.6442 49.97L50.2057 55.1776L49.8755 62.006L65.0006 60.2093L66.4216 49.97L64.6109 49.9879L49.6442 49.97Z" fill="#FFB6B6"/>
<path id="Vector_12" d="M62.5098 33.1501L56.8175 28.6562L53.8294 28.4824L49.3956 31.3228L48.3099 36.8616L45.7422 43.0986L49.5083 59.9305C49.5083 59.9305 49.8615 61.1383 48.9359 61.2834C48.0103 61.4285 48.1213 63.2089 48.1213 63.2089C48.1213 63.2089 48.3098 64.7519 47.411 64.8878C46.5122 65.0236 44.1155 65.0236 46.2127 67.72C48.3099 70.4164 64.8973 60.2183 64.8973 60.2183L67.3065 47.577C67.3065 47.577 71.9787 41.3016 66.9471 37.7076L62.5098 33.1501Z" fill="#E6E6E6"/>
<path id="Vector_13" d="M37.6601 71.3662C37.4093 71.0532 37.2301 70.689 37.1353 70.2993C37.0404 69.9096 37.0322 69.5038 37.1111 69.1106C37.1901 68.7174 37.3543 68.3462 37.5921 68.0233C37.83 67.7004 38.1358 67.4335 38.488 67.2416L45.6481 43.2125L50.1252 45.4666L42.3277 68.4982C42.611 69.1112 42.6595 69.8068 42.4642 70.4532C42.2688 71.0996 41.8432 71.6519 41.2678 72.0054C40.6925 72.3589 40.0074 72.4891 39.3425 72.3713C38.6776 72.2535 38.079 71.8959 37.6601 71.3662Z" fill="#A0616A"/>
<path id="Vector_14" d="M50.4238 31.1004C50.4238 31.1004 49.144 30.4203 48.2686 33.3636C47.5677 35.7199 41.881 49.7554 41.8084 53.1678C41.3404 53.267 40.9187 53.519 40.6098 53.8842C40.3008 54.2495 40.1221 54.7071 40.1019 55.1851L47.1331 56.1273C48.3617 55.091 48.684 53.6914 48.2087 53.276L49.7353 49.1065L56.1042 35.8406L51.3577 31.5757L50.4238 31.1004Z" fill="#E6E6E6"/>
<path id="Vector_15" d="M87.9935 63.4678C88.0843 63.0772 88.0884 62.6713 88.0054 62.2789C87.9224 61.8865 87.7543 61.5171 87.5131 61.1967C87.2719 60.8762 86.9633 60.6126 86.6092 60.4243C86.255 60.236 85.8639 60.1276 85.4634 60.1069L69.0384 41.3481L65.5542 45.5056L82.5446 62.9003C82.5543 63.5756 82.8114 64.2237 83.267 64.7221C83.7227 65.2205 84.3454 65.5344 85.017 65.6043C85.6887 65.6743 86.3627 65.4954 86.9112 65.1017C87.4598 64.7079 87.8449 64.1266 87.9935 63.4678Z" fill="#A0616A"/>
<path id="Vector_16" d="M59.0724 32.6814C59.0724 32.6814 59.9322 31.5147 61.9944 33.79C63.6453 35.6116 74.8423 45.8076 76.3834 48.853C76.8482 48.7401 77.3375 48.785 77.774 48.9807C78.2105 49.1764 78.5696 49.5118 78.7945 49.934L72.8622 53.8242C71.3063 53.4211 70.4104 52.2985 70.6594 51.7184L67.4798 48.6191L56.0004 39.4119L58.4359 33.5138L59.0724 32.6814Z" fill="#E6E6E6"/>
<path id="Vector_17" d="M120.323 84.1859C143.487 84.1859 162.266 65.4072 162.266 42.2424C162.266 19.0777 143.487 0.29895 120.323 0.29895C97.1578 0.29895 78.3791 19.0777 78.3791 42.2424C78.3791 65.4072 97.1578 84.1859 120.323 84.1859Z" fill="#FFA500"/>
<path id="Vector_18" opacity="0.2" d="M118.339 57.0874C116.417 59.0089 113.811 60.0883 111.094 60.0883C108.376 60.0883 105.77 59.0089 103.849 57.0874C102.198 55.4356 101.16 53.2693 100.908 50.9473C100.657 48.6253 101.205 46.287 102.464 44.3196L100.21 46.6193C98.2886 48.5408 97.2091 51.1468 97.2091 53.8642C97.2091 56.5816 98.2886 59.1876 100.21 61.1091C102.132 63.0306 104.738 64.1101 107.455 64.1101C110.172 64.1101 112.778 63.0306 114.7 61.1091L119.695 55.9224L119.771 55.5999L118.339 57.0874Z" fill="black"/>
<path id="Vector_19" opacity="0.2" d="M123.097 25.0435C125.343 23.5138 128.105 22.939 130.774 23.4455C133.444 23.9519 135.803 25.4982 137.333 27.7441C138.647 29.6748 139.263 31.9965 139.077 34.3247C138.892 36.6529 137.917 38.848 136.314 40.5463L138.957 38.707C141.203 37.1773 142.749 34.8181 143.256 32.1484C143.762 29.4786 143.187 26.717 141.657 24.4711C140.128 22.2252 137.769 20.6789 135.099 20.1724C132.429 19.6659 129.668 20.2407 127.422 21.7704L121.547 25.9353L121.412 26.2379L123.097 25.0435Z" fill="black"/>
<path id="Vector_20" d="M107.455 65.3918C105.251 65.3918 103.096 64.7382 101.263 63.5136C99.4306 62.2891 98.0021 60.5485 97.1586 58.5121C96.3151 56.4756 96.0944 54.2348 96.5244 52.0729C96.9544 49.9111 98.0159 47.9253 99.5745 46.3667L109.032 36.7174C110.067 35.6812 111.295 34.859 112.648 34.2978C114 33.7366 115.45 33.4475 116.915 33.4469C118.379 33.4463 119.829 33.7343 121.182 34.2944C122.535 34.8545 123.764 35.6757 124.799 36.7111C124.968 36.8797 125.063 37.1083 125.063 37.3466C125.063 37.585 124.968 37.8136 124.799 37.9821C124.631 38.1506 124.402 38.2453 124.164 38.2453C123.926 38.2453 123.697 38.1506 123.528 37.9821C121.776 36.2292 119.398 35.2445 116.919 35.2445C114.44 35.2445 112.063 36.2292 110.31 37.9821C108.921 42.8794 105.919 46.2396 100.852 47.6314C99.9826 48.4987 99.2926 49.5288 98.8214 50.6629C98.3503 51.797 98.1073 53.0128 98.1063 54.2409C98.1052 55.469 98.3462 56.6852 98.8154 57.8201C99.2846 58.955 99.9728 59.9863 100.841 60.8551C101.709 61.7239 102.739 62.4131 103.874 62.8834C105.008 63.3537 106.224 63.5958 107.452 63.596C108.68 63.5961 109.896 63.3543 111.031 62.8842C112.166 62.4142 113.196 61.7252 114.064 60.8566C113.86 58.8475 114.447 56.959 119.048 55.6819C119.13 55.5965 119.228 55.5281 119.336 55.4806C119.444 55.433 119.561 55.4074 119.679 55.405C119.797 55.4026 119.915 55.4236 120.025 55.4667C120.135 55.5098 120.235 55.5742 120.32 55.6562C120.406 55.7382 120.474 55.8363 120.521 55.9447C120.568 56.053 120.593 56.1697 120.596 56.2879C120.598 56.4061 120.576 56.5236 120.533 56.6336C120.489 56.7435 120.425 56.8439 120.342 56.9288L115.347 62.1156C114.314 63.1569 113.084 63.9827 111.73 64.5451C110.375 65.1075 108.922 65.3953 107.455 65.3918Z" fill="white"/>
<path id="Vector_21" d="M122.81 51.7415C121.346 51.7454 119.895 51.459 118.543 50.8986C117.19 50.3383 115.962 49.5152 114.929 48.4771C114.761 48.3085 114.666 48.0799 114.666 47.8415C114.666 47.6031 114.761 47.3745 114.929 47.206C115.098 47.0374 115.327 46.9428 115.565 46.9428C115.803 46.9428 116.032 47.0376 116.201 47.2061C117.068 48.0741 118.099 48.7626 119.233 49.2324C120.367 49.7021 121.582 49.9439 122.81 49.9439C124.037 49.9439 125.253 49.7021 126.387 49.2324C127.521 48.7626 128.551 48.0741 129.419 47.2062C130.617 39.9905 135.5 38.9722 139.745 36.8803C140.613 36.0124 141.302 34.9819 141.771 33.8479C142.241 32.7138 142.483 31.4984 142.483 30.2709C142.483 29.0434 142.241 27.8279 141.771 26.6939C141.302 25.5598 140.613 24.5294 139.745 23.6614C138.877 22.7935 137.847 22.105 136.713 21.6352C135.579 21.1655 134.363 20.9237 133.136 20.9238C131.908 20.9238 130.693 21.1655 129.559 21.6353C128.425 22.105 127.394 22.7935 126.526 23.6615C125.345 27.0683 124.186 30.5152 120.669 29.5186C120.586 29.602 120.487 29.6682 120.378 29.7134C120.269 29.7585 120.152 29.7818 120.034 29.7818C119.795 29.7818 119.567 29.6871 119.398 29.5186C119.23 29.35 119.135 29.1214 119.135 28.8831C119.135 28.6447 119.23 28.4161 119.398 28.2476L125.255 22.3905C126.29 21.3557 127.519 20.5348 128.871 19.9747C130.223 19.4146 131.672 19.1263 133.136 19.1263C134.599 19.1263 136.048 19.4146 137.4 19.9747C138.753 20.5347 139.981 21.3556 141.016 22.3905C142.051 23.4253 142.872 24.6539 143.432 26.006C143.992 27.3581 144.28 28.8073 144.28 30.2709C144.28 31.7344 143.992 33.1836 143.432 34.5357C142.872 35.8878 142.051 37.1164 141.016 38.1513L130.69 48.4772C129.658 49.5154 128.43 50.3384 127.077 50.8987C125.724 51.459 124.274 51.7455 122.81 51.7415Z" fill="white"/>
<path id="Vector_22" d="M156.765 20.8969C155.003 17.9052 152.883 15.1394 150.452 12.6609C149.91 12.1097 149.35 11.5703 148.777 11.046C148.46 10.7555 148.139 10.4708 147.813 10.1922C147.193 9.65894 146.554 9.14357 145.904 8.64634C138.56 3.02861 129.568 -0.0104248 120.322 2.68687e-05C97.0311 2.68687e-05 78.0787 18.9495 78.0787 42.2431C78.0776 44.8116 78.3112 47.3747 78.7766 49.9007C78.7774 49.9148 78.7794 49.9289 78.7828 49.9427C78.9955 51.1021 79.2591 52.2465 79.5647 53.37C81.7294 61.3 86.161 68.426 92.316 73.8745C98.471 79.323 106.082 82.8571 114.216 84.0438C122.35 85.2304 130.654 84.0179 138.109 80.5549C145.564 77.0919 151.846 71.529 156.186 64.548C156.771 63.6072 157.32 62.6425 157.834 61.6538C161.115 55.3235 162.737 48.265 162.55 41.1376C162.363 34.0101 160.373 27.0464 156.765 20.8969ZM120.322 83.887C114.852 83.8889 109.436 82.813 104.383 80.7209C99.3298 78.6287 94.7383 75.5613 90.8709 71.694C87.0035 67.8266 83.9361 63.2351 81.844 58.1818C79.7519 53.1284 78.676 47.7124 78.6779 42.2431C78.6779 19.2789 97.3607 0.59922 120.322 0.59922C125.878 0.602369 131.378 1.71786 136.497 3.87994C141.615 6.04201 146.249 9.20693 150.126 13.1881C151.137 14.2201 152.091 15.3063 152.984 16.4418C153.868 17.553 154.693 18.7101 155.455 19.9081C158.634 24.9009 160.711 30.5141 161.547 36.3732C162.384 42.2323 161.962 48.2024 160.309 53.8854C159.94 55.1556 159.509 56.399 159.024 57.6184C158.535 58.8407 157.993 60.0391 157.394 61.2015C153.89 68.0195 148.578 73.7423 142.039 77.7434C135.501 81.7446 127.987 83.87 120.322 83.887Z" fill="#3F3D56"/>
<path id="Vector_23" d="M177.788 141.7L175.034 141.676L173.815 130.807L177.88 130.842L177.788 141.7Z" fill="#FFB6B6"/>
<path id="Vector_24" d="M178.518 140.43L177.799 140.382L174.866 140.181L173.922 140.118L173.905 142.086L169.507 145.07C169.289 145.218 169.125 145.431 169.037 145.679C168.95 145.926 168.944 146.195 169.02 146.447C169.096 146.698 169.251 146.918 169.461 147.075C169.672 147.233 169.927 147.318 170.19 147.32L175.663 147.365L176.622 145.424L176.972 147.377L179.04 147.395L178.518 140.43Z" fill="#4C6B29"/>
<path id="Vector_25" d="M206.78 139.688L204.148 140.497L199.705 130.503L203.59 129.309L206.78 139.688Z" fill="#FFB6B6"/>
<path id="Vector_26" d="M207.094 138.258L206.393 138.428L203.538 139.121L202.618 139.345L203.196 141.23L199.903 145.4C199.76 145.582 199.672 145.8 199.647 146.03C199.622 146.26 199.662 146.492 199.763 146.7C199.864 146.908 200.022 147.084 200.218 147.207C200.413 147.33 200.64 147.395 200.871 147.395C200.993 147.395 201.114 147.377 201.231 147.341L206.465 145.733L206.791 143.59L207.717 145.346L209.691 144.738L207.094 138.258Z" fill="#4C6B29"/>
<path id="Vector_27" d="M172.249 50.3069L166.994 65.5785L166.821 66.8005C165.497 68.0577 167.16 68.4719 166.536 68.8035C165.913 69.135 165.493 70.0644 166.334 70.2305C167.174 70.3965 169.884 129.962 173.458 132.275C177.033 134.587 179.208 136.26 178.551 132.874C178.287 131.509 178.661 124.194 179.202 115.944C179.263 115.009 180.232 114.02 179.392 113.111C178.551 112.202 179.495 111.604 179.548 110.849C180.302 100.077 181.172 89.4412 181.172 89.4412C181.172 89.4412 186.743 108.573 188.19 107.092C189.636 105.611 189.064 109.257 189.506 110.347C189.875 111.257 188.299 113.046 190.616 113.073C192.932 113.101 198.372 131.696 198.924 131.675C200.017 131.634 203.091 131.752 204.916 131.376C205.817 131.19 201.816 117.111 198.476 104.954C198.209 103.984 196.759 103.962 197.692 102.09C198.624 100.218 193.984 88.1063 194.383 87.5461C195.439 86.0593 195.842 85.4131 194.8 85.3157C193.757 85.2183 193.449 85.7901 193.393 84.3478C193.337 82.9055 193.157 79.349 193.157 79.349C193.157 79.349 192.402 65.2833 187.115 57.5122L186.664 52.8948L172.249 50.3069Z" fill="#4C6B29"/>
<path id="Vector_28" d="M185.378 21.1497L178.409 22.1419L177.988 27.188L174.549 32.5673C174.549 32.5673 166.906 37.9466 172.236 46.4442C170.208 53.7642 168.191 60.7844 166.268 65.4647C164.77 74.7522 178.19 75.6424 193.531 72.3554C193.531 72.3554 193.32 68.3842 191.927 66.4751C190.535 64.5659 191.293 64.1491 191.293 64.1491L190.32 60.5824C190.871 55.4268 189.012 54.9641 188.138 52.5821L190.791 27.867L185.378 21.1497Z" fill="#E6E6E6"/>
<path id="Vector_29" d="M151.923 64.349C151.997 63.8529 152.262 63.4051 152.661 63.1011C153.06 62.797 153.561 62.6606 154.059 62.7208C154.16 62.7347 154.26 62.7569 154.358 62.7872L158.394 57.4172L161.84 58.5068L155.515 65.2651C155.358 65.6592 155.075 65.9902 154.71 66.2065C154.345 66.4228 153.919 66.5123 153.498 66.4609C153.259 66.4294 153.028 66.3511 152.819 66.2304C152.61 66.1097 152.427 65.9491 152.28 65.7576C152.133 65.5661 152.025 65.3476 151.963 65.1145C151.901 64.8814 151.885 64.6382 151.916 64.399C151.918 64.3823 151.921 64.3656 151.923 64.349Z" fill="#FFB6B6"/>
<path id="Vector_30" d="M187.779 30.9154C187.68 30.7925 187.572 30.6727 187.458 30.5558C186.667 29.7403 185.648 29.1827 184.534 28.956C183.421 28.7294 182.265 28.8442 181.218 29.2856C181.116 29.3274 181.014 29.3754 180.915 29.4234C177.335 31.1819 175.403 32.3534 175.169 32.9017C175.088 33.0875 175.019 33.2702 174.95 33.4469C174.884 33.6207 174.821 33.7854 174.755 33.9352C174.48 34.5764 174.162 34.9749 173.353 34.7951C173.085 34.7295 172.826 34.6298 172.583 34.4985C172.472 34.4446 172.371 34.3877 172.275 34.3337C171.927 34.142 171.675 34.0042 171.505 34.13C171.34 34.2528 171.334 34.5644 171.484 35.2864C171.533 35.5878 171.525 35.8958 171.46 36.1942C171.262 37.0644 170.952 37.9053 170.537 38.6958C169.916 39.9349 169.218 41.1337 168.446 42.285L161.319 52.4473L160.836 53.1333L160.309 53.8854L156.102 59.8833L156.351 60.1379L157.394 61.2015L157.624 61.4382L157.834 61.6538L158.377 62.2081L158.886 62.7264L170.25 53.4689L171.517 52.4352L173.788 50.5838L178.44 46.794L187.246 38.6449C187.801 38.1346 188.248 37.5173 188.56 36.83C188.871 36.1427 189.041 35.3996 189.058 34.6453C189.058 34.5944 189.061 34.5464 189.061 34.4955C189.064 33.1891 188.611 31.9226 187.779 30.9154Z" fill="#E6E6E6"/>
<path id="Vector_31" d="M181.194 20.966C185.494 20.966 188.981 17.4796 188.981 13.1789C188.981 8.87823 185.494 5.39185 181.194 5.39185C176.893 5.39185 173.407 8.87823 173.407 13.1789C173.407 17.4796 176.893 20.966 181.194 20.966Z" fill="#FFB6B6"/>
<path id="Vector_32" d="M191.513 23.9769C192.558 25.4726 193.258 27.1822 193.56 28.9816C192.718 29.5204 191.737 29.8034 190.737 29.7963C190.704 29.6654 190.67 29.5345 190.631 29.4035C190.341 28.3896 189.91 27.4215 189.351 26.5277C189.427 27.4915 189.297 28.4605 188.967 29.3696C188.439 29.1295 187.873 28.9834 187.294 28.938C186.823 28.938 186.358 29.0475 185.936 29.258C185.447 27.6334 184.996 26.1398 184.676 25.068C184.666 27.7547 180.728 30.097 176.431 29.7576C176.276 29.6606 177.833 25.2426 177.682 25.1408C177.338 24.9128 177.003 24.6655 176.669 24.423C178.075 22.2504 179.603 19.9226 179.341 19.5735C179.36 20.0051 177.818 22.0807 176.14 24.0399C175.209 23.3561 180.5 12.2312 177.886 11.3292C177.842 11.722 177.265 11.722 176.562 11.6396C176.377 10.9914 176.101 10.3727 175.743 9.80155C175.789 10.3769 175.72 10.9557 175.539 11.5038C174.845 11.504 174.152 11.5771 173.473 11.722C173.316 11.4748 173.143 11.2382 172.954 11.0139C172.973 11.2873 172.965 11.5618 172.93 11.8335C172.236 11.9839 171.664 12.1584 171.582 12.2991C171.039 12.1003 171.965 11.2031 171.625 10.7375C170.762 9.57364 172.042 7.87629 172.852 6.67358C174.516 4.21001 178.167 3.35648 180.752 4.8356C180.869 4.43307 181.465 4.16636 182.231 3.98692C182.556 3.91534 182.888 3.88439 183.221 3.89478C186.518 3.95297 191.096 6.67358 191.276 9.96645C191.29 10.2962 191.315 10.6551 191.339 11.0382C191.572 14.7239 191.286 18.1234 193.802 20.8198C194.714 21.7945 194.724 26.4113 194.375 28.7877C193.468 27.8323 192.823 24.1175 191.513 23.9769Z" fill="#4C6B29"/>
<path id="Vector_33" d="M105.749 43.2946C106.246 43.2946 106.648 42.8922 106.648 42.3959C106.648 41.8995 106.246 41.4971 105.749 41.4971C105.253 41.4971 104.851 41.8995 104.851 42.3959C104.851 42.8922 105.253 43.2946 105.749 43.2946Z" fill="#FFA500"/>
<path id="Vector_34" d="M134.211 42.6954C134.707 42.6954 135.11 42.293 135.11 41.7966C135.11 41.3002 134.707 40.8978 134.211 40.8978C133.715 40.8978 133.312 41.3002 133.312 41.7966C133.312 42.293 133.715 42.6954 134.211 42.6954Z" fill="#FFA500"/>
<path id="Vector_35" d="M48.6554 16.4168C47.9714 18.1203 46.0417 21.4704 45.7803 23.298L45.8979 23.1823C46.1224 23.5656 46.3774 23.9302 46.6605 24.2726C47.168 23.7396 47.7808 23.3182 48.4601 23.0352C48.0892 23.7963 47.8744 24.6239 47.8283 25.4693C48.5565 27.752 51.9232 26.7355 53.8957 26.4862C55.8655 28.7394 58.4862 29.3274 61.9181 28.032C62.8779 28.1308 63.9523 28.1908 64.6249 27.6237C65.2974 27.0565 64.8969 26.0062 65.2588 25.2118C67.8363 19.5534 65.4576 17.5118 63.4366 14.9461C62.9918 14.3814 62.9937 13.5388 62.4525 13.0001C61.7016 12.2534 60.5505 12.0237 59.4893 11.8397C59.765 11.8542 60.0398 11.7976 60.2872 11.6751C60.5346 11.5527 60.7463 11.3686 60.902 11.1406C61.0386 10.911 61.109 10.648 61.1057 10.3808C61.1023 10.1136 61.0251 9.85256 60.8828 9.62642C60.5033 8.9972 59.7146 8.63131 58.9537 8.5399C58.2041 8.489 57.4511 8.55372 56.7212 8.73181C56.2484 8.794 55.7905 8.94035 55.3693 9.16392C55.1705 9.26996 55.0089 9.43415 54.906 9.63453C54.803 9.8349 54.7637 10.0619 54.7933 10.2852C54.8567 10.4915 54.9658 10.6807 55.1126 10.8389C55.2593 10.997 55.4399 11.12 55.6408 11.1987C55.9471 11.3282 56.2693 11.4164 56.5989 11.461C55.0851 11.2645 53.5473 11.5337 52.1902 12.2326C50.4894 13.1398 49.3417 14.7142 48.6554 16.4168Z" fill="#4C6B29"/>
<path id="Vector_36" d="M57.8647 25.9675C61.2224 25.9675 63.9443 23.2456 63.9443 19.8879C63.9443 16.5302 61.2224 13.8082 57.8647 13.8082C54.507 13.8082 51.785 16.5302 51.785 19.8879C51.785 23.2456 54.507 25.9675 57.8647 25.9675Z" fill="#A0616A"/>
<path id="Vector_37" d="M52.0145 16.6281C52.3671 17.6935 53.3744 18.0368 54.3055 18.2509C54.5991 18.3193 54.8945 18.3831 55.1926 18.4398C55.3025 18.3023 55.4195 18.1676 55.5417 18.0402C56.0492 17.5072 56.662 17.0858 57.3413 16.8028C57.0476 17.404 56.8524 18.0484 56.7631 18.7116C57.326 18.7932 57.892 18.86 58.4611 18.9118C58.9426 19.0143 59.4451 18.9279 59.8647 18.6704C60.2843 18.413 60.5889 18.0042 60.7157 17.5285C61.2338 18.3757 61.8463 19.1736 62.6841 19.5101C63.1631 19.6822 63.6847 19.6964 64.1724 19.5505C64.6601 19.4046 65.0882 19.1063 65.394 18.6994C65.8771 18.0356 66.212 17.2758 66.3762 16.4714C66.6139 15.528 66.7459 14.4412 66.2792 13.8426C65.9052 13.3582 65.2602 13.3495 64.6649 13.3924C63.3513 13.4932 62.0515 13.7289 60.786 14.0957L60.6789 14.3365C60.8964 13.0301 60.4247 11.7731 59.5519 11.326C58.9632 11.0271 58.2549 11.0772 57.5667 11.1379C56.6827 11.1773 55.8093 11.3462 54.9744 11.6392C54.0166 12.0076 53.196 12.663 52.6249 13.5157C52.014 14.4432 51.7105 15.7081 52.0145 16.6281Z" fill="#4C6B29"/>
<path id="Vector_38" d="M60.6816 10.9458C60.6216 10.9281 60.7771 10.9508 60.7232 10.9523C60.7499 10.9507 60.7766 10.947 60.8027 10.9412C60.8072 10.9403 60.8677 10.9209 60.8275 10.9352C60.9178 10.9082 60.9983 10.8556 61.0594 10.7838C61.2022 10.6072 61.3143 10.4078 61.3908 10.194C61.4875 9.91141 61.6427 9.65246 61.8465 9.43414C61.9043 9.37605 61.9751 9.33242 62.0529 9.30679C62.1308 9.28115 62.2136 9.27424 62.2946 9.28661C62.3757 9.29898 62.4526 9.33028 62.5193 9.37797C62.586 9.42567 62.6404 9.48841 62.6783 9.56111C62.7552 9.84156 62.7289 10.1403 62.6041 10.403C62.5169 10.6703 62.3873 10.9217 62.22 11.1477C61.9398 11.5172 61.5581 11.7972 61.1215 11.9536C60.6161 12.1372 60.0651 12.1529 59.5501 11.9985C59.482 11.9703 59.4236 11.9229 59.3821 11.8621C59.3405 11.8013 59.3175 11.7297 59.3159 11.656C59.3143 11.5824 59.3341 11.5099 59.373 11.4473C59.4119 11.3847 59.4681 11.3348 59.5349 11.3037L60.3938 10.9521C60.4391 10.9322 60.4877 10.9214 60.5371 10.9203C60.5865 10.9192 60.6356 10.9279 60.6816 10.9458C60.7277 10.9637 60.7698 10.9905 60.8054 11.0247C60.8411 11.0588 60.8697 11.0997 60.8896 11.1449C60.9095 11.1901 60.9203 11.2388 60.9214 11.2882C60.9225 11.3376 60.9138 11.3867 60.8959 11.4327C60.878 11.4788 60.8512 11.5208 60.817 11.5565C60.7829 11.5922 60.742 11.6208 60.6968 11.6407L59.8379 11.9923L59.8227 11.2974C59.9299 11.3283 60.0402 11.3472 60.1515 11.3536C60.2703 11.3655 60.3902 11.3605 60.5076 11.3386C60.6201 11.3238 60.7306 11.2969 60.8372 11.2582C60.9054 11.2333 60.9724 11.2049 61.0378 11.1732C61.0616 11.1617 61.0851 11.1497 61.1084 11.1373C61.1067 11.1382 61.2067 11.08 61.1628 11.1073C61.2739 11.0363 61.3782 10.9551 61.4742 10.8648C61.5081 10.8327 61.5393 10.798 61.5676 10.7609C61.6165 10.7008 61.6619 10.6378 61.7034 10.5724C61.7881 10.4339 61.8551 10.2854 61.903 10.1303C61.9248 10.0651 61.9432 9.99886 61.9582 9.93177C61.9623 9.89494 61.969 9.85844 61.9781 9.82251C62.01 9.73692 61.9721 9.8725 62.0087 9.90958L62.1671 10.0263C62.1968 10.0351 62.2281 10.0372 62.2588 10.0323C62.2894 10.0274 62.3185 10.0156 62.344 9.99792C62.3628 9.97152 62.3587 9.9759 62.3317 10.0111C62.3004 10.0524 62.2716 10.0958 62.2458 10.1408C62.189 10.2467 62.1377 10.3555 62.092 10.4666C61.9975 10.703 61.878 10.9287 61.7356 11.1397C61.596 11.3532 61.3926 11.5171 61.1544 11.6082C60.9162 11.6993 60.6553 11.7129 60.409 11.647C60.3165 11.6102 60.2422 11.5385 60.2022 11.4474C60.1621 11.3563 60.1594 11.2531 60.1947 11.1601C60.2325 11.0684 60.3043 10.9949 60.3951 10.9549C60.4858 10.915 60.5885 10.9117 60.6816 10.9458Z" fill="#4C6B29"/>
</g>
<defs>
<clipPath id="clip0_51_8">
<rect width="216.527" height="148" fill="white" transform="translate(0.236275)"/>
</clipPath>
</defs>
</svg>
