<svg width="16" height="16" viewBox="0 0 16 16" fill="none" xmlns="http://www.w3.org/2000/svg">
<g id="copy-05" clip-path="url(#clip0_85_1672)">
<path id="Icon" d="M5.3335 10.6667V12.5333C5.3335 13.2801 5.3335 13.6534 5.47882 13.9387C5.60665 14.1895 5.81063 14.3935 6.06151 14.5213C6.34673 14.6667 6.72009 14.6667 7.46683 14.6667H12.5335C13.2802 14.6667 13.6536 14.6667 13.9388 14.5213C14.1897 14.3935 14.3937 14.1895 14.5215 13.9387C14.6668 13.6534 14.6668 13.2801 14.6668 12.5333V7.46666C14.6668 6.71993 14.6668 6.34656 14.5215 6.06134C14.3937 5.81046 14.1897 5.60648 13.9388 5.47865C13.6536 5.33333 13.2802 5.33333 12.5335 5.33333H10.6668M3.46683 10.6667H8.5335C9.28023 10.6667 9.6536 10.6667 9.93882 10.5213C10.1897 10.3935 10.3937 10.1895 10.5215 9.93865C10.6668 9.65343 10.6668 9.28007 10.6668 8.53333V3.46666C10.6668 2.71993 10.6668 2.34656 10.5215 2.06134C10.3937 1.81046 10.1897 1.60648 9.93882 1.47865C9.6536 1.33333 9.28023 1.33333 8.5335 1.33333H3.46683C2.72009 1.33333 2.34672 1.33333 2.06151 1.47865C1.81063 1.60648 1.60665 1.81046 1.47882 2.06134C1.3335 2.34656 1.3335 2.71993 1.3335 3.46666V8.53333C1.3335 9.28007 1.3335 9.65343 1.47882 9.93865C1.60665 10.1895 1.81063 10.3935 2.06151 10.5213C2.34672 10.6667 2.72009 10.6667 3.46683 10.6667Z" stroke="#8BC34A" stroke-width="1.33333" stroke-linecap="round" stroke-linejoin="round"/>
</g>
<defs>
<clipPath id="clip0_85_1672">
<rect width="16" height="16" fill="white"/>
</clipPath>
</defs>
</svg>
