<svg width="14" height="14" viewBox="0 0 14 14" fill="none" xmlns="http://www.w3.org/2000/svg">
<path id="Vector" d="M7.02667 0.333292C3.38667 0.333292 0.420002 3.29996 0.420002 6.93996C0.420002 8.10662 0.726669 9.23996 1.3 10.24L0.366669 13.6666L3.86667 12.7466C4.83333 13.2733 5.92 13.5533 7.02667 13.5533C10.6667 13.5533 13.6333 10.5866 13.6333 6.94662C13.6333 5.17996 12.9467 3.51996 11.7 2.27329C11.0888 1.65591 10.3608 1.1664 9.55843 0.833326C8.75606 0.500248 7.89541 0.330265 7.02667 0.333292ZM7.03333 1.44663C8.5 1.44663 9.87333 2.01996 10.9133 3.05996C11.4237 3.57019 11.8284 4.17617 12.1041 4.84313C12.3798 5.5101 12.5212 6.22492 12.52 6.94662C12.52 9.97329 10.0533 12.4333 7.02667 12.4333C6.04 12.4333 5.07334 12.1733 4.23334 11.6666L4.03334 11.5533L1.95334 12.1L2.50667 10.0733L2.37334 9.85996C1.82263 8.98574 1.53134 7.97317 1.53334 6.93996C1.54 3.91329 4 1.44663 7.03333 1.44663ZM4.68667 3.88663C4.58 3.88663 4.4 3.92663 4.24667 4.09329C4.1 4.25996 3.66667 4.66663 3.66667 5.47329C3.66667 6.28663 4.26 7.06663 4.33333 7.17996C4.42667 7.29329 5.50667 8.95996 7.16667 9.66663C7.56 9.84663 7.86667 9.94663 8.10667 10.02C8.5 10.1466 8.86 10.1266 9.14667 10.0866C9.46667 10.04 10.12 9.68662 10.26 9.29996C10.4 8.91329 10.4 8.58663 10.36 8.51329C10.3133 8.44663 10.2067 8.40662 10.04 8.33329C9.87333 8.23996 9.06 7.83996 8.91333 7.78662C8.76 7.73329 8.66667 7.70662 8.54 7.86662C8.43334 8.03329 8.11333 8.40662 8.02 8.51329C7.92 8.62663 7.82667 8.63996 7.66667 8.55996C7.49333 8.47329 6.96 8.29996 6.33333 7.73996C5.84 7.29996 5.51333 6.75996 5.41333 6.59329C5.33333 6.43329 5.40667 6.33329 5.48667 6.25996C5.56 6.18663 5.66667 6.06662 5.73334 5.96662C5.82 5.87329 5.84667 5.79996 5.9 5.69329C5.95334 5.57996 5.92667 5.48662 5.88667 5.40662C5.84667 5.33329 5.51334 4.50663 5.37334 4.17996C5.24 3.85996 5.10667 3.89996 5 3.89329C4.90667 3.89329 4.8 3.88663 4.68667 3.88663Z" fill="#475467"/>
</svg>
