<svg width="64" height="64" viewBox="0 0 64 64" fill="none" xmlns="http://www.w3.org/2000/svg">
<g id="Group 2">
<path id="Vector" d="M32.0008 63.7725C49.5486 63.7725 63.7738 49.5472 63.7738 31.9995C63.7738 14.4517 49.5486 0.22646 32.0008 0.22646C14.4531 0.22646 0.227783 14.4517 0.227783 31.9995C0.227783 49.5472 14.4531 63.7725 32.0008 63.7725Z" fill="#FFA500"/>
<path id="Vector_2" opacity="0.2" d="M30.4979 43.2448C29.0424 44.7004 27.0682 45.5181 25.0098 45.5181C22.9513 45.5181 20.9772 44.7004 19.5216 43.2448C18.2708 41.9936 17.4849 40.3525 17.2942 38.5936C17.1034 36.8346 17.5192 35.0633 18.4728 33.573L16.7652 35.315C15.3097 36.7706 14.4919 38.7447 14.4919 40.8032C14.4919 42.8617 15.3097 44.8358 16.7652 46.2914C18.2208 47.7469 20.1949 48.5646 22.2534 48.5646C24.3118 48.5646 26.286 47.7469 27.7415 46.2914L31.5256 42.3623L31.5831 42.118L30.4979 43.2448Z" fill="black"/>
<path id="Vector_3" opacity="0.2" d="M34.1024 18.9709C35.8037 17.8122 37.8957 17.3767 39.9181 17.7604C41.9404 18.1441 43.7276 19.3154 44.8864 21.0167C45.882 22.4792 46.3483 24.238 46.2078 26.0017C46.0674 27.7653 45.3287 29.4281 44.1141 30.7146L46.1165 29.3213C47.8178 28.1626 48.9891 26.3754 49.3728 24.353C49.7565 22.3306 49.321 20.2387 48.1623 18.5373C47.0035 16.836 45.2164 15.6646 43.194 15.281C41.1716 14.8973 39.0796 15.3328 37.3783 16.4915L32.9283 19.6465L32.8262 19.8757L34.1024 18.9709Z" fill="black"/>
<path id="Vector_4" d="M22.2534 49.5356C20.5837 49.5356 18.9514 49.0405 17.5631 48.1128C16.1747 47.1852 15.0927 45.8667 14.4537 44.324C13.8147 42.7814 13.6475 41.0839 13.9733 39.4463C14.299 37.8086 15.1031 36.3044 16.2838 35.1237L23.4482 27.8142C24.2319 27.0292 25.1626 26.4064 26.1872 25.9813C27.2117 25.5562 28.31 25.3371 29.4192 25.3367C30.5284 25.3362 31.6269 25.5544 32.6517 25.9787C33.6766 26.403 34.6078 27.0251 35.3921 27.8094C35.5198 27.9371 35.5915 28.1102 35.5915 28.2908C35.5915 28.4714 35.5198 28.6445 35.3921 28.7722C35.2645 28.8999 35.0913 28.9716 34.9108 28.9716C34.7302 28.9716 34.557 28.8999 34.4294 28.7722C33.1015 27.4443 31.3005 26.6984 29.4226 26.6984C27.5448 26.6984 25.7438 27.4444 24.4159 28.7722C23.3636 32.482 21.0899 35.0274 17.2515 36.0817C16.5929 36.7387 16.0702 37.5191 15.7133 38.3782C15.3564 39.2373 15.1723 40.1583 15.1715 41.0886C15.1708 42.0188 15.3533 42.9401 15.7087 43.7999C16.0642 44.6596 16.5855 45.4408 17.243 46.0989C17.9005 46.757 18.6812 47.2791 19.5406 47.6354C20.4 47.9917 21.3211 48.1751 22.2514 48.1752C23.1816 48.1753 24.1028 47.9921 24.9623 47.636C25.8217 47.28 26.6026 46.7581 27.2602 46.1001C27.1051 44.5782 27.5498 43.1475 31.0352 42.1801C31.0972 42.1154 31.1713 42.0636 31.2533 42.0276C31.3353 41.9916 31.4237 41.9722 31.5132 41.9704C31.6027 41.9686 31.6918 41.9844 31.7752 42.0171C31.8586 42.0498 31.9347 42.0985 31.9992 42.1607C32.0637 42.2228 32.1153 42.2971 32.1511 42.3792C32.1868 42.4613 32.2061 42.5497 32.2076 42.6392C32.2092 42.7288 32.193 42.8177 32.1601 42.901C32.1272 42.9843 32.0782 43.0603 32.0159 43.1247L28.2319 47.0538C27.4493 47.8426 26.5178 48.4681 25.4915 48.8942C24.4652 49.3202 23.3646 49.5382 22.2534 49.5356Z" fill="white"/>
<path id="Vector_5" d="M33.8848 39.1952C32.7757 39.1982 31.677 38.9812 30.6523 38.5567C29.6276 38.1323 28.6973 37.5088 27.9152 36.7223C27.7875 36.5946 27.7158 36.4215 27.7158 36.2409C27.7158 36.0603 27.7876 35.8871 27.9153 35.7595C28.043 35.6318 28.2162 35.5601 28.3968 35.5601C28.5773 35.5601 28.7505 35.6319 28.8782 35.7596C29.5357 36.4171 30.3162 36.9387 31.1752 37.2945C32.0343 37.6503 32.955 37.8335 33.8849 37.8335C34.8147 37.8335 35.7354 37.6503 36.5945 37.2945C37.4535 36.9387 38.234 36.4171 38.8915 35.7596C39.7989 30.2936 43.4982 29.5222 46.7138 27.9376C47.3713 27.2801 47.8928 26.4995 48.2486 25.6404C48.6045 24.7814 48.7876 23.8606 48.7876 22.9308C48.7876 22.0009 48.6045 21.0802 48.2486 20.2211C47.8928 19.3621 47.3712 18.5815 46.7137 17.924C46.0562 17.2665 45.2756 16.745 44.4166 16.3891C43.5575 16.0333 42.6368 15.8502 41.7069 15.8502C40.7771 15.8502 39.8563 16.0333 38.9973 16.3892C38.1382 16.745 37.3576 17.2666 36.7001 17.9241C35.8056 20.5047 34.9274 23.1159 32.2633 22.3609C32.2001 22.4241 32.125 22.4743 32.0424 22.5085C31.9598 22.5427 31.8713 22.5603 31.7819 22.5603C31.6014 22.5603 31.4282 22.4886 31.3005 22.3609C31.1728 22.2332 31.1011 22.0601 31.1011 21.8795C31.1011 21.699 31.1728 21.5258 31.3005 21.3981L35.7373 16.9613C36.5213 16.1773 37.4519 15.5555 38.4762 15.1312C39.5004 14.707 40.5982 14.4886 41.7069 14.4886C42.8155 14.4886 43.9133 14.7069 44.9376 15.1312C45.9618 15.5555 46.8925 16.1773 47.6764 16.9612C48.4604 17.7452 49.0822 18.6758 49.5065 19.7001C49.9308 20.7243 50.1491 21.8221 50.1491 22.9308C50.1491 24.0394 49.9308 25.1372 49.5065 26.1615C49.0822 27.1857 48.4604 28.1164 47.6765 28.9003L39.8543 36.7225C39.0722 37.5089 38.1419 38.1323 37.1173 38.5568C36.0926 38.9812 34.9939 39.1982 33.8848 39.1952Z" fill="white"/>
<path id="Vector_6" d="M59.6062 15.8298C58.2718 13.5635 56.666 11.4684 54.8243 9.59088C54.4135 9.17333 53.9892 8.76475 53.5557 8.36759C53.3151 8.14751 53.0723 7.93186 52.8249 7.72076C52.3551 7.31683 51.8718 6.92643 51.3793 6.54977C45.8159 2.29423 39.0043 -0.00789701 32 2.03536e-05C14.3568 2.03536e-05 2.81596e-06 14.3546 2.81596e-06 32C-0.000814198 33.9456 0.176155 35.8873 0.528704 37.8007C0.529268 37.8115 0.530826 37.8221 0.533358 37.8326C0.694493 38.7109 0.894173 39.5778 1.12567 40.4288C2.76552 46.4359 6.12248 51.834 10.785 55.9614C15.4476 60.0887 21.2131 62.7659 27.3748 63.6648C33.5365 64.5637 39.8265 63.6452 45.4739 61.022C51.1213 58.3987 55.8805 54.1846 59.1682 48.8964C59.6107 48.1837 60.0267 47.4529 60.4164 46.704C62.9015 41.9087 64.1306 36.5617 63.989 31.1625C63.8473 25.7634 62.3394 20.4882 59.6062 15.8298ZM32 63.5461C27.8569 63.5475 23.7541 62.7325 19.9261 61.1477C16.0981 59.5628 12.62 57.2392 9.69036 54.3096C6.76075 51.38 4.43714 47.9018 2.8523 44.0738C1.26747 40.2458 0.452481 36.1431 0.453903 32C0.453903 14.6042 14.6065 0.453921 32 0.453921C36.2092 0.456307 40.3753 1.30131 44.2528 2.93913C48.1303 4.57695 51.6406 6.97443 54.577 9.99026C55.3428 10.772 56.0656 11.5948 56.7421 12.455C57.4119 13.2968 58.0369 14.1732 58.6144 15.0808C61.022 18.8629 62.5952 23.1151 63.2292 27.5534C63.8632 31.9918 63.5433 36.5143 62.2909 40.8192C62.0118 41.7815 61.685 42.7234 61.3173 43.647C60.9474 44.573 60.5366 45.4808 60.0827 46.3614C57.4284 51.5261 53.4045 55.8612 48.4514 58.8922C43.4983 61.9231 37.8069 63.5332 32 63.5461Z" fill="#3F3D56"/>
</g>
</svg>
